<svg xmlns="http://www.w3.org/2000/svg" width="159" height="34" viewBox="0 0 159 34" fill="none"><path d="M20.7194 22.9866C19.7291 23.7687 18.2616 24.1368 16.958 24.2846C15.6518 24.4326 14.4025 24.3705 13.7943 24.2118L14.0113 23.3806C14.4764 23.502 15.6078 23.5731 16.8612 23.431C18.1171 23.2887 19.3881 22.9434 20.1869 22.3125L20.7194 22.9866Z" fill="black"></path><path d="M26.4717 15.401C26.3402 15.3487 26.2268 15.2759 26.1314 15.1825C26.0333 15.088 25.9513 14.9862 25.8855 14.8768C25.8169 14.7664 25.7645 14.6607 25.7285 14.5598C25.688 14.4536 25.669 14.3473 25.6716 14.241C25.6754 14.1316 25.6969 14.0276 25.7361 13.9289C25.7742 13.8332 25.8288 13.7458 25.9 13.6668C25.9695 13.5836 26.0575 13.5164 26.164 13.4652C26.2583 13.4196 26.3683 13.3802 26.494 13.3471C26.6169 13.3128 26.7459 13.2966 26.8809 13.2983C27.0143 13.296 27.1468 13.3209 27.2783 13.3732C27.4069 13.4244 27.5203 13.4972 27.6185 13.5917C27.715 13.6821 27.7961 13.7819 27.8619 13.8912C27.9277 14.0005 27.9806 14.1047 28.0207 14.2038C28.0629 14.3141 28.0821 14.4239 28.0783 14.5333C28.0757 14.6396 28.0554 14.7406 28.0174 14.8363C27.9781 14.935 27.9229 15.0239 27.8517 15.103C27.7805 15.1821 27.6917 15.2472 27.5852 15.2984C27.4869 15.3459 27.3763 15.3867 27.2534 15.421C27.1305 15.4552 27.0024 15.4735 26.869 15.4759C26.7327 15.4771 26.6003 15.4522 26.4717 15.401ZM26.7286 14.755C26.823 14.7925 26.9146 14.8203 27.0034 14.8383C27.0934 14.8533 27.1753 14.8599 27.2489 14.858C27.3208 14.852 27.3793 14.8423 27.4243 14.8291C27.4774 14.8121 27.5191 14.7905 27.5493 14.7645C27.5767 14.7373 27.5969 14.7072 27.61 14.6743C27.6231 14.6414 27.629 14.6057 27.6278 14.5671C27.6237 14.5274 27.6077 14.4846 27.5795 14.4388C27.5555 14.3911 27.5182 14.3433 27.4676 14.2955C27.4155 14.2436 27.3523 14.1942 27.2782 14.1474C27.2013 14.0995 27.1156 14.0568 27.0213 14.0193C26.9241 13.9806 26.8333 13.9549 26.749 13.9421C26.663 13.9252 26.5847 13.9183 26.5139 13.9213C26.4444 13.9214 26.3836 13.9284 26.3317 13.9424C26.2769 13.9552 26.2359 13.9753 26.2085 14.0025C26.1783 14.0286 26.1566 14.0581 26.1435 14.091C26.1304 14.1239 26.1259 14.1602 26.13 14.1999C26.1312 14.2385 26.1467 14.2827 26.1765 14.3327C26.2046 14.3785 26.2433 14.4268 26.2926 14.4776C26.342 14.5284 26.4031 14.5787 26.476 14.6285C26.5472 14.6742 26.6314 14.7163 26.7286 14.755Z" fill="black"></path><path d="M0.974609 11.1621C0.868399 9.7528 2.21187 9.1799 3.38281 9.75195C4.52981 10.3114 5.47653 11.7924 5.57031 13.0576C5.59415 13.3801 5.41609 13.7055 5.55273 13.9912L7.68945 16.458C9.67115 15.2494 12.0045 16.1703 14.168 16.1523C15.1389 16.1443 18.1794 15.8387 18.5771 14.8242C18.7157 14.47 18.7018 13.7948 18.6572 13.0879C19.3256 13.3544 20.201 13.651 21.167 13.8828C22.3786 14.1735 23.7741 14.3722 25.0996 14.2676C25.1865 15.1342 25.2282 16.0024 25.1826 16.874C27.0282 16.5862 28.574 16.2481 30.4395 16.5518C32.4339 16.876 35.001 18.0994 35.7988 20.0762C36.2435 21.1765 35.9541 22.2102 34.9199 22.8223C33.0433 23.9323 32.1008 22.4441 30.6768 21.6064C29.9296 21.1667 28.8709 20.6755 27.9971 20.8076C29.6414 22.302 31.6239 24.1291 31.7256 26.5273C31.7764 27.7269 30.7914 28.7876 29.6377 28.9893C26.9547 29.4574 26.1763 26.2116 24.4697 24.8145C23.0648 23.6642 21.5243 23.6538 20.0322 22.7783C18.4675 23.4933 16.7901 23.8348 15.0781 23.5195C15.0483 24.6857 14.8101 25.8543 14.4014 26.9453C13.6442 28.9657 11.3944 32.4743 8.93262 32.3135C7.77561 32.2377 6.93075 30.9991 7.9873 30.0596C8.60644 29.5088 9.01491 29.0563 9.80566 28.1338C10.5966 27.211 12.4296 24.8694 11.9248 22.7715C11.7265 23.1445 11.7057 23.5933 11.5732 24.0039C10.689 26.7334 8.28912 29.2076 6.06543 30.9502C4.75112 31.9803 3.16649 32.8551 1.52539 31.9668C-0.115838 31.0782 -0.462656 28.8622 0.630859 27.5752C2.42377 26.0247 3.51046 25.317 4.66504 23.5195C5.20485 22.6796 5.72967 21.6294 6.58301 21.0527C6.21669 20.2246 6.21617 18.2373 6.76465 17.5117L4.41602 14.6523C2.67564 14.516 1.10644 12.9022 0.974609 11.1621ZM7.33496 21.9375C7.26894 21.9596 7.20281 22.0261 7.09277 22.2021C6.98242 22.3788 6.21114 23.7293 5.9082 24.2158C5.6958 24.5572 5.42102 24.9636 5.17773 25.2832C4.96566 25.5627 3.75224 26.8388 3.74121 26.998C3.71067 27.4917 4.84882 26.7176 5.00098 26.6035C5.91761 25.915 6.96979 24.4204 7.40625 23.3623C7.62141 22.8404 7.59927 22.0475 7.5332 21.9814C7.46724 21.9157 7.40092 21.9155 7.33496 21.9375ZM22.5391 19.9443C22.29 19.9142 21.5058 19.8421 21.1191 19.9688C20.9697 20.0176 20.8691 20.1703 20.9023 20.3242C20.9204 20.4085 20.9727 20.476 21.0732 20.5293C21.3029 20.6502 22.3784 20.7137 22.7666 20.8027C23.8737 21.0582 24.9821 21.6069 25.9238 22.2314C26.0242 22.2983 26.9731 23.143 27.0674 22.9883C26.4233 21.3001 24.2671 20.1546 22.5391 19.9443ZM13.001 2.28906C13.7765 0.328266 15.7414 -0.466756 17.7061 0.272461C19.6115 0.989497 20.9014 3.33166 21.2197 5.25586L21.2217 5.25293C22.5572 4.60238 23.9903 4.38759 25.4629 4.32227C26.8334 4.26115 28.7081 4.37073 29.9209 5.04297C30.1379 5.16354 30.8355 5.74054 30.9453 5.74219C31.0833 5.74321 31.3758 5.67629 31.5137 5.62891C32.1377 5.41441 32.6729 3.81167 33.3486 4.06445C33.6025 4.16054 34.1658 5.73032 34.2432 6.05176C34.3274 6.39871 34.4732 6.88205 34.2266 7.1748C33.8136 7.47924 32.7353 6.94693 32.2852 6.98047C32.0385 6.99836 31.7894 7.18665 31.5273 7.20605L31.4531 7.28027C31.3321 10.4241 27.6665 12.3761 24.8076 12.0996C24.851 12.3705 24.8894 12.642 24.9287 12.9131C23.82 12.9908 22.6045 12.8251 21.4854 12.5566C20.2359 12.2569 19.1569 11.8438 18.5605 11.5635L18.5576 11.5674C18.5517 11.3983 18.5506 11.2443 18.5576 11.1123C18.5971 10.3757 18.7759 9.67281 18.9365 8.95898C15.7007 9.25946 11.6689 5.65798 13.001 2.28906ZM16.6387 1.46582C15.7177 1.12405 14.5462 1.35172 14.373 2.44043C15.5592 2.08227 16.7417 2.50826 17.6523 3.28027L18.4805 4.12598C18.3221 3.07151 17.6876 1.85566 16.6387 1.46582Z" fill="black"></path><path d="M158.396 11.7549C158.194 13.2568 156.952 14.1819 155.71 14.4707C156.201 15.1638 156.489 16.0012 156.489 16.9541C156.489 20.2178 153.601 21.7782 149.847 21.7783C149.125 21.7783 148.431 21.7206 147.767 21.5762C147.334 21.7783 147.073 22.0669 147.073 22.5C147.073 23.0197 147.507 23.2225 148.084 23.2227H151.955C155.999 23.2227 157.963 24.7531 157.963 27.6123C157.963 31.5982 153.63 33.0429 149.355 33.043C145.918 33.043 142.278 32.1472 142.278 29.4033C142.278 27.8727 143.578 26.8909 145.427 26.6309C144.214 26.2842 143.348 25.3309 143.348 23.916C143.348 22.4429 144.503 21.374 146.005 21.0273C144.301 20.2475 143.232 18.8893 143.231 16.9541C143.232 13.7482 145.89 12.0156 149.847 12.0156C151.377 12.0157 152.735 12.3332 153.832 12.8818C154.294 12.362 154.526 11.4089 154.612 10.5137L158.396 11.7549ZM147.796 27.3242C146.785 27.3242 146.12 27.786 146.12 28.5947C146.12 29.6922 147.42 30.2119 149.528 30.2119C152.128 30.2119 153.803 29.6634 153.804 28.4795C153.804 27.6996 153.11 27.3242 151.926 27.3242H147.796ZM72.0156 12.0156C76.2902 12.0158 78.3701 14.9619 78.3701 18.5723C78.3701 19.1787 78.2537 20.0159 78.1094 20.5068H69.2422C69.2711 22.5864 70.3689 23.7998 71.9863 23.7998C73.1704 23.7998 74.0082 23.2223 74.3838 21.9229L78.2539 23.251C77.3585 26.0815 74.73 27.3242 71.8994 27.3242C67.5094 27.3241 64.679 24.5221 64.6787 19.8145C64.6787 15.0486 67.4519 12.0156 72.0156 12.0156ZM85.5801 12.3623H89.3643V15.8564H85.5518V21.749C85.5518 22.962 86.1585 23.5107 87.1982 23.5107C87.978 23.5107 88.6427 23.2796 89.3936 22.7598L90 26.1104C88.9602 26.8902 87.5445 27.3242 86.0137 27.3242C82.9232 27.3242 80.7862 25.8218 80.7861 22.3848V15.8564H78.9082V12.3623H80.8145V8.09082L85.5801 7.51367V12.3623ZM100.436 12.0156C103.901 12.0156 106.068 13.546 106.501 16.2607L102.544 16.7236C102.428 15.7128 101.707 15.0479 100.465 15.0479C99.3672 15.0479 98.7031 15.568 98.7031 16.4346C98.7035 19.0049 106.645 16.608 106.646 22.4424C106.645 25.6195 103.931 27.3242 100.118 27.3242C96.941 27.3242 94.3992 26.024 93.7637 23.3379L97.749 22.4424C97.9513 23.5109 98.9336 24.2332 100.146 24.2334C101.36 24.2334 102.14 23.7709 102.14 22.8467C102.139 20.3052 94.2552 22.5865 94.2549 16.9258C94.2549 13.7197 97.0273 12.0157 100.436 12.0156ZM127.012 7.51367L126.859 26.9775H122.729L122.181 24.291C121.574 26.2839 119.869 27.3242 117.761 27.3242C114.497 27.3241 111.898 24.6374 111.897 19.9873C111.897 14.8748 114.382 12.0157 118.05 12.0156C120.1 12.0156 121.544 12.9107 122.064 14.2393V7.40137L127.012 7.51367ZM135.24 11.8916C135.912 11.8916 136.574 12.0084 137.225 12.2402C137.896 12.4528 138.515 12.8103 139.082 13.3125C139.586 13.7569 140.09 14.307 140.594 14.9639C141.097 15.6014 141.506 16.3164 141.821 17.1084C142.157 17.8813 142.325 18.7128 142.325 19.6016C142.325 20.4709 142.157 21.3016 141.821 22.0938C141.506 22.8666 141.098 23.5724 140.594 24.21C140.09 24.8475 139.586 25.3977 139.082 25.8613C138.515 26.3636 137.896 26.731 137.225 26.9629C136.574 27.1947 135.912 27.3105 135.24 27.3105C134.548 27.3105 133.876 27.1946 133.226 26.9629C132.575 26.731 131.965 26.3637 131.398 25.8613C130.874 25.3978 130.36 24.8472 129.856 24.21C129.353 23.5724 128.933 22.8666 128.597 22.0938C128.261 21.3016 128.093 20.4709 128.093 19.6016C128.093 18.7128 128.261 17.8813 128.597 17.1084C128.933 16.3164 129.353 15.6014 129.856 14.9639C130.36 14.3073 130.874 13.7567 131.398 13.3125C131.944 12.8296 132.543 12.4721 133.193 12.2402C133.865 12.0084 134.548 11.8916 135.24 11.8916ZM55.8525 22.9336H64.4023V26.9775H51V6.66602H55.9883L55.8525 22.9336ZM135.24 14.6455C135.009 14.6455 134.779 14.7035 134.548 14.8193C134.317 14.9159 134.085 15.1086 133.854 15.3984C133.645 15.6689 133.446 16.0074 133.257 16.4131C133.068 16.8188 132.91 17.2921 132.784 17.833C132.679 18.3547 132.627 18.9446 132.627 19.6016C132.627 20.2391 132.679 20.8382 132.784 21.3984C132.91 21.9586 133.068 22.451 133.257 22.876C133.467 23.2817 133.666 23.6012 133.854 23.833C134.085 24.1035 134.317 24.2962 134.548 24.4121C134.779 24.5087 135.009 24.5576 135.24 24.5576C135.471 24.5576 135.703 24.5087 135.934 24.4121C136.164 24.2962 136.385 24.1033 136.595 23.833C136.826 23.5819 137.024 23.2532 137.192 22.8477C137.381 22.4226 137.529 21.9394 137.634 21.3984C137.739 20.8382 137.791 20.2391 137.791 19.6016C137.791 18.9446 137.728 18.3547 137.602 17.833C137.497 17.2922 137.35 16.8187 137.161 16.4131C136.993 16.0074 136.805 15.6689 136.595 15.3984C136.385 15.1089 136.164 14.916 135.934 14.8193C135.703 14.7034 135.471 14.6455 135.24 14.6455ZM119.552 15.4814C117.819 15.4815 116.779 16.9261 116.779 19.8145C116.779 22.2979 117.819 23.6268 119.465 23.627C120.88 23.6269 122.064 22.5288 122.064 20.2471V18.5146C122.064 16.4639 120.823 15.4815 119.552 15.4814ZM149.847 14.7588C148.576 14.7588 147.882 15.5393 147.882 16.9258C147.882 18.2542 148.576 19.0918 149.847 19.0918C151.06 19.0917 151.781 18.3119 151.781 16.9258C151.781 15.5106 151.06 14.7589 149.847 14.7588ZM71.8994 15.3662C70.4266 15.3664 69.4443 16.4634 69.2998 18.2539H73.9219C73.9795 18.0519 73.9795 17.8207 73.9795 17.5898C73.9795 16.4056 73.2569 15.3662 71.8994 15.3662ZM95.5039 7.48633C94.8262 9.68892 94.0636 11.4685 92.834 13.417H90.4209C90.5483 12.9045 90.5855 12.7234 90.7129 12.1768C90.8403 11.6301 90.9592 11.0828 91.0684 10.5361C91.1957 9.97251 91.3045 9.43427 91.3955 8.92188C91.5047 8.40936 91.5961 7.93052 91.6689 7.48633H95.5039Z" fill="black"></path></svg>